# xmcd
#
# Track frame offsets: 
#        150
#        16906
#        35914
#        53213
#        69173
#        85450
#        101616
#        117447
#        136217
#        154815
#        172649
#        189286
#        204258
#
# Disc length: 2924 seconds
#
# Revision: 0
# Processed by: cddbd v1.5.2PL0 Copyright (c) Steve Scherf et al.
# Submitted via: ExactAudioCopyFreeDBPlugin 1.0
#
DISCID=a30b6a0d
DTITLE=Madonna Nash - Madonna Nash
DYEAR=2010
DGENRE=Country
TTITLE0=Dirty Little Secret
TTITLE1=Firefly
TTITLE2=You Never Say It First
TTITLE3=Whiskey Whispers
TTITLE4=Drive
TTITLE5=Out Of Town
TTITLE6=Swingin' Door
TTITLE7=Out Of Sight (Out Of Mind)
TTITLE8=Those Were The Days
TTITLE9=Don't Leave
TTITLE10=Destiny
TTITLE11=Beautiful
TTITLE12=Watch My Purse (Bonus Track)
EXTD=
EXTT0=
EXTT1=
EXTT2=
EXTT3=
EXTT4=
EXTT5=
EXTT6=
EXTT7=
EXTT8=
EXTT9=
EXTT10=
EXTT11=
EXTT12=
PLAYORDER=
